# File created by Blade
# Date/Time:  Fri Jan 16 15:45:56 2015
#---------------------------------------------------------
:version 1.10
:name HOM
:units
  mass 1.0
  length 1.000000
  angle deg
:documentation
     Acclaim Skeleton File
:root
   axis xyz
   order TX TY TZ RX RY RZ
   position 0.000000 0.000000 0.000000
   orientation 0 0 0
:bonedata
   begin
      id 1
      name Spine_dum
      direction 0.000000 1.000000 0.000000
      length 7.170412
      axis 0.0 0.0 0.0 xyz
   end
   begin
      id 2
      name LeftUpLeg_dum
      direction 1.000000 0.000000 0.000000
      length 4.318350
      axis 0.0 0.0 0.0 xyz
   end
   begin
      id 3
      name RightUpLeg_dum
      direction -1.000000 0.000000 0.000000
      length 4.318350
      axis 0.0 0.0 0.0 xyz
   end
   begin
      id 4
      name Spine
      direction 0.000000 1.000000 0.000000
      length 0.000000
      axis 0.0 0.0 0.0 xyz
      dof rx ry rz
   end
   begin
      id 5
      name Spine_dum1
      direction 0.000000 1.000000 0.000000
      length 14.276153
      axis 0.0 0.0 0.0 xyz
   end
   begin
      id 6
      name Spine_dum2
      direction 0.000000 1.000000 0.000000
      length 10.718243
      axis 0.0 0.0 0.0 xyz
   end
   begin
      id 7
      name Spine_dum3
      direction 0.000000 1.000000 0.000000
      length 10.718243
      axis 0.0 0.0 0.0 xyz
   end
   begin
      id 8
      name Head
      direction 0.000000 1.000000 0.000000
      length 4.527550
      axis 0.0 0.0 0.0 xyz
      dof rx ry rz
   end
   begin
      id 9
      name LeftShoulder
      direction 1.000000 0.000000 0.000000
      length 7.058872
      axis 0.0 0.0 -90.0 xyz
      dof rx ry rz
   end
   begin
      id 10
      name LeftArm
      direction 1.000000 0.000000 0.000000
      length 10.955525
      axis 0.0 0.0 -90.0 xyz
      dof rx ry rz
   end
   begin
      id 11
      name LeftForeArm
      direction 1.000000 0.000000 0.000000
      length 8.193716
      axis 0.0 0.0 -90.0 xyz
      dof ry rz rx
   end
   begin
      id 12
      name LeftHand
      direction 0.000000 0.000000 0.000000
      length 0.000000
      axis 0.0 0.0 -90.0 xyz
      dof rx ry rz
   end
   begin
      id 13
      name LeftHand_dum1
      direction 0.000000 0.000000 0.000000
      length 0.000000
      axis 0.0 0.0 -90.0 xyz
   end
   begin
      id 14
      name LeftHand_dum2
      direction 1.000000 0.000000 0.000000
      length 3.937000
      axis 0.0 0.0 -90.0 xyz
   end
   begin
      id 15
      name LeftHandThumb1
      direction 0.000000 0.000000 1.000000
      length 3.937000
      axis 0.0 0.0 -90.0 xyz
      dof rx rz ry
   end
   begin
      id 16
      name RightShoulder
      direction -1.000000 0.000000 0.000000
      length 7.058872
      axis 0.0 0.0 90.0 xyz
      dof rx ry rz
   end
   begin
      id 17
      name RightArm
      direction -1.000000 0.000000 0.000000
      length 10.955525
      axis 0.0 0.0 90.0 xyz
      dof rx ry rz
   end
   begin
      id 18
      name RightForeArm
      direction -1.000000 0.000000 0.000000
      length 8.193716
      axis 0.0 0.0 90.0 xyz
      dof ry rz rx
   end
   begin
      id 19
      name RightHand
      direction 0.000000 0.000000 0.000000
      length 0.000000
      axis 0.0 0.0 90.0 xyz
      dof rx ry rz
   end
   begin
      id 20
      name RightHand_dum1
      direction 0.000000 0.000000 0.000000
      length 0.000000
      axis 0.0 0.0 90.0 xyz
   end
   begin
      id 21
      name RightHand_dum2
      direction -1.000000 0.000000 0.000000
      length 3.937000
      axis 0.0 0.0 90.0 xyz
   end
   begin
      id 22
      name RightHandThumb1
      direction 0.000000 0.000000 1.000000
      length 3.937000
      axis 0.0 0.0 90.0 xyz
      dof rx rz ry
   end
   begin
      id 23
      name LeftUpLeg
      direction 0.000000 -1.000000 0.000000
      length 17.323638
      axis 0.0 0.0 0.0 xyz
      dof rx ry rz
   end
   begin
      id 24
      name LeftLeg
      direction 0.000000 -1.000000 0.000000
      length 16.270368
      axis 0.0 0.0 0.0 xyz
      dof rx ry rz
   end
   begin
      id 25
      name LeftFoot
      direction 0.000000 -0.258819 0.965926
      length 4.922846
      axis 15.0 0.0 0.0 xyz
      dof rx ry rz
   end
   begin
      id 26
      name LeftToeBase
      direction 0.000000 0.000000 1.000000
      length 2.952750
      axis 0.0 0.0 0.0 xyz
      dof rx ry rz
   end
   begin
      id 27
      name RightUpLeg
      direction 0.000000 -1.000000 0.000000
      length 17.323638
      axis 0.0 0.0 0.0 xyz
      dof rx ry rz
   end
   begin
      id 28
      name RightLeg
      direction 0.000000 -1.000000 0.000000
      length 16.270368
      axis 0.0 0.0 0.0 xyz
      dof rx ry rz
   end
   begin
      id 29
      name RightFoot
      direction 0.000000 -0.258819 0.965926
      length 4.922846
      axis 15.0 0.0 0.0 xyz
      dof rx ry rz
   end
   begin
      id 30
      name RightToeBase
      direction 0.000000 0.000000 1.000000
      length 2.952750
      axis 0.0 0.0 0.0 xyz
      dof rx ry rz
   end
:hierarchy
   begin
      root Spine_dum LeftUpLeg_dum RightUpLeg_dum
      Spine_dum Spine
      LeftUpLeg_dum LeftUpLeg
      RightUpLeg_dum RightUpLeg
      Spine Spine_dum1 Spine_dum2 Spine_dum3
      Spine_dum1 Head
      Spine_dum2 LeftShoulder
      Spine_dum3 RightShoulder
      LeftShoulder LeftArm
      LeftArm LeftForeArm
      LeftForeArm LeftHand
      LeftHand LeftHand_dum1 LeftHand_dum2
      LeftHand_dum1 LeftHandThumb1
      RightShoulder RightArm
      RightArm RightForeArm
      RightForeArm RightHand
      RightHand RightHand_dum1 RightHand_dum2
      RightHand_dum1 RightHandThumb1
      LeftUpLeg LeftLeg
      LeftLeg LeftFoot
      LeftFoot LeftToeBase
      RightUpLeg RightLeg
      RightLeg RightFoot
      RightFoot RightToeBase
   end

# File created by Blade
# Date/Time:  Fri Jan 16 15:45:48 2015
# Frame Rate: 120.000 fps
#------------------------------------------------------
:FULLY-SPECIFIED
:DEGREES
3168
root -5.998943 35.101162 -9.299830 1.749378 16.380890 -3.284418
Spine -11.843803 1.686839 -0.880214
Head -6.661378 -56.360016 1.461184
LeftShoulder -18.804605 10.954920 -17.741649
LeftArm 21.270568 4.116043 -63.690277
LeftForeArm 12.520651 -0.000000 13.166099
LeftHand 2.393323 0.000000 -8.968958
LeftHandThumb1 -26.253704 0.000000 33.147579
RightShoulder -12.629077 32.080066 -44.018270
RightArm 106.378134 60.591279 109.640105
RightForeArm 44.818488 -0.000000 58.470447
RightHand 3.895952 -0.000000 -39.611322
RightHandThumb1 -24.326973 -0.000000 -32.862282
LeftUpLeg 3.999041 0.247966 5.555933
LeftLeg -8.481039 -0.000000 0.000000
LeftFoot -12.773663 20.481160 -8.094184
LeftToeBase 23.069605 -0.000000 -0.000000
RightUpLeg 8.786219 -16.007570 2.060419
RightLeg -5.160422 -0.000000 0.000000
RightFoot -9.601295 -35.067282 7.425577
RightToeBase 13.376421 -0.000000 -0.000000
3169
root -5.995400 35.099041 -9.286553 1.690067 16.383632 -3.270296
Spine -11.920370 1.802438 -0.837420
Head -6.271326 -56.391374 1.022764
LeftShoulder -18.830528 11.026517 -17.850635
LeftArm 21.230386 4.014474 -63.690681
LeftForeArm 12.602015 -0.000000 13.078680
LeftHand 2.432680 0.000000 -8.814083
LeftHandThumb1 -26.253704 0.000000 33.147579
RightShoulder -12.468697 32.052137 -44.027572
RightArm 106.259336 60.314394 109.971495
RightForeArm 45.343211 -0.000000 59.180029
RightHand 4.095137 -0.000000 -39.046434
RightHandThumb1 -24.326973 -0.000000 -32.862282
LeftUpLeg 4.089105 0.201629 5.543295
LeftLeg -8.488503 -0.000000 0.000000
LeftFoot -12.780179 20.510152 -8.076159
LeftToeBase 23.016256 -0.000000 -0.000000
RightUpLeg 8.876315 -15.980192 2.028526
RightLeg -5.162275 -0.000000 0.000000
RightFoot -9.631286 -35.101601 7.430525
RightToeBase 13.370705 -0.000000 -0.000000
3170
root -5.993643 35.098557 -9.273229 1.645178 16.391810 -3.249509
Spine -12.013118 1.906159 -0.810567
Head -5.912657 -56.453346 0.595676
LeftShoulder -18.803260 11.081422 -17.872076
LeftArm 21.064036 4.031976 -63.728497
LeftForeArm 12.569479 -0.000000 13.081598
LeftHand 2.405706 -0.000000 -8.573103
LeftHandThumb1 -26.253704 0.000000 33.147579
RightShoulder -12.334913 32.029737 -44.043081
RightArm 106.282823 59.954049 110.549985
RightForeArm 46.027574 -0.000000 60.039133
RightHand 4.183705 -0.000000 -38.645429
RightHandThumb1 -24.326973 -0.000000 -32.862282
LeftUpLeg 4.158868 0.140328 5.524658
LeftLeg -8.475458 -0.000000 0.000000
LeftFoot -12.775030 20.510874 -8.230242
LeftToeBase 22.721115 -0.000000 -0.000000
RightUpLeg 8.955906 -15.991802 1.993153
RightLeg -5.171469 -0.000000 0.000000
RightFoot -9.647032 -35.105593 7.437008
RightToeBase 13.393783 -0.000000 -0.000000
3171
root -5.996525 35.098871 -9.263676 1.629911 16.418100 -3.234504
Spine -12.133299 1.966177 -0.790260
Head -5.528450 -56.511950 0.174357
LeftShoulder -18.817754 11.179510 -17.971418
LeftArm 21.028573 3.968694 -63.682661
LeftForeArm 12.584481 -0.000000 12.978551
LeftHand 2.421380 0.000000 -8.588559
LeftHandThumb1 -26.253704 0.000000 33.147579
RightShoulder -12.136193 31.879788 -43.931501
RightArm 106.432080 59.577551 111.168349
RightForeArm 46.975006 -0.000000 61.052513
RightHand 4.471022 -0.000000 -38.238209
RightHandThumb1 -24.326973 -0.000000 -32.862282
LeftUpLeg 4.171890 0.081688 5.525631
LeftLeg -8.452966 -0.000000 0.000000
LeftFoot -12.822536 20.542498 -8.164462
LeftToeBase 22.972590 -0.000000 -0.000000
RightUpLeg 8.990946 -16.033944 1.978014
RightLeg -5.166276 -0.000000 0.000000
RightFoot -9.655626 -35.097338 7.420418
RightToeBase 13.400254 -0.000000 -0.000000
3172
root -5.999197 35.099042 -9.254637 1.615470 16.418282 -3.241476
Spine -12.276016 2.065894 -0.721563
Head -5.048216 -56.569451 -0.396152
LeftShoulder -18.832392 11.343996 -18.077820
LeftArm 21.017083 3.813796 -63.744019
LeftForeArm 12.746960 -0.000000 12.893129
LeftHand 2.376300 0.000000 -8.497214
LeftHandThumb1 -26.253704 0.000000 33.147579
RightShoulder -11.935832 31.725848 -43.857471
RightArm 106.653054 59.111522 111.980761
RightForeArm 47.944636 -0.000000 62.292042
RightHand 4.648782 -0.000000 -37.743839
RightHandThumb1 -24.326973 -0.000000 -32.862282
LeftUpLeg 4.198832 0.023720 5.542215
LeftLeg -8.454274 -0.000000 0.000000
LeftFoot -12.841538 20.583119 -8.178644
LeftToeBase 22.987041 -0.000000 -0.000000
RightUpLeg 9.009067 -16.077432 1.980119
RightLeg -5.145983 -0.000000 0.000000
RightFoot -9.674880 -35.047392 7.456724
RightToeBase 13.360074 -0.000000 -0.000000
3173
root -6.004503 35.098774 -9.249488 1.625724 16.414675 -3.271256
Spine -12.445567 2.152020 -0.627007
Head -4.574710 -56.589903 -0.962229
LeftShoulder -18.797050 11.310544 -18.128397
LeftArm 20.910439 4.145704 -63.568872
LeftForeArm 12.513339 -0.000000 12.545652
LeftHand 2.469410 -0.000000 -8.451386
LeftHandThumb1 -26.253704 0.000000 33.147579
RightShoulder -11.676025 31.599368 -43.753673
RightArm 106.713066 58.786879 112.648369
RightForeArm 49.177511 0.000000 63.786449
RightHand 4.838739 -0.000000 -36.949671
RightHandThumb1 -24.326973 -0.000000 -32.862282
LeftUpLeg 4.189020 -0.001427 5.576148
LeftLeg -8.467726 -0.000000 0.000000
LeftFoot -12.870294 20.650496 -8.194903
LeftToeBase 23.014141 -0.000000 -0.000000
RightUpLeg 8.981233 -16.099242 2.024211
RightLeg -5.123124 -0.000000 0.000000
RightFoot -9.672956 -35.045702 7.436573
RightToeBase 13.372534 -0.000000 -0.000000
3174
root -5.993787 35.100332 -9.221485 1.478383 16.261151 -3.197831
Spine -12.452737 2.352610 -0.642032
Head -4.033064 -56.594728 -1.569789
LeftShoulder -18.784667 11.437417 -18.237798
LeftArm 20.841393 4.043309 -63.526912
LeftForeArm 12.589161 -0.000000 12.410219
LeftHand 2.618491 -0.000000 -8.253339
LeftHandThumb1 -26.253704 0.000000 33.147579
RightShoulder -11.389184 31.439517 -43.595492
RightArm 106.875277 58.314791 113.535662
RightForeArm 50.217875 -0.000000 65.495585
RightHand 5.098901 -0.000000 -36.166701
RightHandThumb1 -24.326973 -0.000000 -32.862282
LeftUpLeg 4.442071 -0.234148 5.500581
LeftLeg -8.425776 -0.000000 0.000000
LeftFoot -12.944721 20.856727 -8.497528
LeftToeBase 22.669447 -0.000000 -0.000000
RightUpLeg 9.213879 -16.007044 1.876647
RightLeg -5.157887 -0.000000 0.000000
RightFoot -9.684094 -34.970749 7.481157
RightToeBase 13.322443 -0.000000 -0.000000
